<svg width="131" height="193" viewBox="0 0 131 193" fill="none" xmlns="http://www.w3.org/2000/svg">
<path d="M2.08285 76.7634C2.05834 136.72 2.04886 158.71 2.04654 165.645M2.04654 165.645H128.25M2.04654 165.645V171.387H128.25V165.645M128.25 165.645L128.289 76.7821" stroke="black" stroke-width="4"/>
<path d="M87.8 104.22C87.8 119.218 77.5738 131.076 65.3 131.076C53.0262 131.076 42.8 119.218 42.8 104.22C42.8 89.2224 53.0262 77.365 65.3 77.365C77.5738 77.365 87.8 89.2224 87.8 104.22Z" stroke="black" stroke-width="2"/>
<line x1="89" y1="175" x2="46" y2="175" stroke="black" stroke-width="4"/>
<path d="M23.8 165.359C56.1121 99.7447 109.8 146.49 109.8 165.359" stroke="black" stroke-width="2"/>
<path d="M2.57846 165.045C78.7462 163.093 86.0842 137.712 120.343 74.6691" stroke="black" stroke-width="2"/>
<g filter="url(#filter0_d)">
<path d="M64.8 0L126.8 38.3339L64.8 76.6678L2.79996 38.3339L64.8 0Z" fill="black"/>
</g>
<line x1="20.8" y1="64.427" x2="20.8" y2="104.22" stroke="black" stroke-width="6"/>
<line x1="20.8" y1="47.9427" x2="20.8" y2="64.427" stroke="black" stroke-width="2"/>
<line y1="75" x2="10" y2="75" stroke="black" stroke-width="4"/>
<defs>
<filter id="filter0_d" x="0.799965" y="0" width="128" height="81.6678" filterUnits="userSpaceOnUse" color-interpolation-filters="sRGB">
<feFlood flood-opacity="0" result="BackgroundImageFix"/>
<feColorMatrix in="SourceAlpha" type="matrix" values="0 0 0 0 0 0 0 0 0 0 0 0 0 0 0 0 0 0 127 0" result="hardAlpha"/>
<feOffset dy="3"/>
<feGaussianBlur stdDeviation="1"/>
<feComposite in2="hardAlpha" operator="out"/>
<feColorMatrix type="matrix" values="0 0 0 0 0 0 0 0 0 0 0 0 0 0 0 0 0 0 0.25 0"/>
<feBlend mode="normal" in2="BackgroundImageFix" result="effect1_dropShadow"/>
<feBlend mode="normal" in="SourceGraphic" in2="effect1_dropShadow" result="shape"/>
</filter>
</defs>
</svg>
